<svg xmlns="http://www.w3.org/2000/svg" xmlns:xlink="http://www.w3.org/1999/xlink" width="2000" zoomAndPan="magnify" viewBox="0 0 1500 1499.999933" height="2000" preserveAspectRatio="xMidYMid meet" version="1.0"><defs><clipPath id="88a35a0161"><path d="M 457 431 L 1368.640625 431 L 1368.640625 1371 L 457 1371 Z M 457 431 " clip-rule="nonzero"/></clipPath><clipPath id="d221aa2ac2"><path d="M 457 676.496094 L 1368.640625 676.496094 L 1368.640625 1371 L 457 1371 Z M 457 676.496094 " clip-rule="nonzero"/></clipPath><clipPath id="b01dd5aa89"><rect x="0" width="1369" y="0" height="1372"/></clipPath></defs><rect x="-150" width="1800" fill="#ffffff" y="-149.999993" height="1799.99992" fill-opacity="1"/><rect x="-150" width="1800" fill="#f5f7f9" y="-149.999993" height="1799.99992" fill-opacity="1"/><g transform="matrix(1, 0, 0, 1, 74, 56)"><g clip-path="url(#b01dd5aa89)"><g clip-path="url(#88a35a0161)"><path fill="#1e2227" d="M 915.628906 1370.375 C 849.25 1370.375 788.046875 1358.734375 732.011719 1335.460938 C 675.976562 1312.183594 627.484375 1279.636719 586.535156 1237.832031 C 545.585938 1196.019531 513.902344 1146.449219 491.488281 1089.117188 C 469.074219 1031.785156 457.871094 969.074219 457.871094 900.972656 C 457.871094 832.867188 469.074219 770.152344 491.488281 712.828125 C 513.902344 655.496094 545.585938 605.925781 586.535156 564.113281 C 627.484375 522.300781 675.976562 489.757812 732.011719 466.484375 C 788.046875 443.203125 849.25 431.5625 915.628906 431.5625 C 987.179688 431.5625 1052.914062 444.710938 1112.832031 471.003906 C 1172.746094 497.296875 1224.039062 534.800781 1266.707031 583.511719 C 1309.378906 632.21875 1340.632812 689.761719 1360.46875 756.136719 L 1238.910156 756.136719 C 1215.632812 690.621094 1175.332031 639.117188 1118.003906 601.621094 C 1060.675781 564.117188 994.515625 545.363281 919.515625 545.363281 C 852.269531 545.363281 792.785156 560.453125 741.0625 590.628906 C 689.335938 620.796875 648.601562 662.605469 618.859375 716.054688 C 589.121094 769.503906 574.25 831.144531 574.25 900.972656 C 574.25 970.796875 589.121094 1032.433594 618.859375 1085.878906 C 648.601562 1139.332031 689.335938 1181.140625 741.0625 1211.316406 C 792.785156 1241.488281 852.269531 1256.570312 919.515625 1256.570312 C 996.238281 1256.570312 1064.34375 1236.742188 1123.824219 1197.089844 C 1183.304688 1157.4375 1224.683594 1103.554688 1247.957031 1035.449219 L 1368.222656 1035.449219 C 1350.121094 1102.691406 1319.300781 1161.316406 1275.765625 1211.316406 C 1232.230469 1261.320312 1179.640625 1300.332031 1118.003906 1328.347656 C 1056.363281 1356.363281 988.90625 1370.375 915.628906 1370.375 Z M 915.628906 1370.375 " fill-opacity="1" fill-rule="nonzero"/></g><path fill="#1f84c9" d="M 461.683594 939.785156 C 395.304688 939.785156 334.101562 928.148438 278.066406 904.878906 C 222.035156 881.601562 173.332031 849.058594 131.953125 807.25 C 90.570312 765.433594 58.457031 715.863281 35.613281 658.539062 C 12.769531 601.214844 1.347656 538.5 1.347656 470.394531 C 1.347656 402.292969 12.550781 339.800781 34.964844 282.910156 C 57.378906 226.015625 89.277344 176.445312 130.660156 134.199219 C 172.039062 91.960938 220.527344 59.203125 276.132812 35.929688 C 331.734375 12.652344 392.71875 1.011719 459.097656 1.011719 C 528.066406 1.011719 591.855469 13.511719 650.46875 38.515625 C 709.089844 63.511719 759.734375 98.421875 802.402344 143.246094 C 845.078125 188.078125 875.898438 240.230469 894.863281 299.710938 L 770.734375 299.710938 C 742.28125 241.09375 701.332031 195.621094 647.882812 163.296875 C 594.4375 130.96875 532.804688 114.804688 462.972656 114.804688 C 395.738281 114.804688 336.042969 129.890625 283.886719 160.0625 C 231.730469 190.234375 190.996094 232.046875 161.6875 285.496094 C 132.378906 338.9375 117.722656 400.574219 117.722656 470.394531 C 117.722656 540.222656 132.59375 601.863281 162.332031 655.3125 C 192.074219 708.757812 233.023438 750.5625 285.179688 780.738281 C 337.335938 810.910156 397.027344 825.996094 464.265625 825.996094 C 525.472656 825.996094 579.78125 813.925781 627.195312 789.792969 C 674.605469 765.65625 713.179688 732.25 742.917969 689.578125 C 772.660156 646.902344 791.414062 597.117188 799.179688 540.21875 L 430.652344 540.21875 L 430.652344 431.609375 L 922.015625 431.609375 C 923.738281 530.742188 905.421875 618.457031 867.058594 694.75 C 828.699219 771.039062 774.820312 830.953125 705.425781 874.488281 C 636.027344 918.019531 554.78125 939.785156 461.683594 939.785156 Z M 461.683594 939.785156 " fill-opacity="1" fill-rule="nonzero"/><g clip-path="url(#d221aa2ac2)"><path fill="#1e2227" d="M 915.628906 1370.375 C 849.25 1370.375 788.046875 1358.734375 732.011719 1335.460938 C 675.976562 1312.183594 627.484375 1279.636719 586.535156 1237.832031 C 545.585938 1196.019531 513.902344 1146.449219 491.488281 1089.117188 C 469.074219 1031.785156 457.871094 969.074219 457.871094 900.972656 C 457.871094 832.867188 469.074219 770.152344 491.488281 712.828125 C 513.902344 655.496094 545.585938 605.925781 586.535156 564.113281 C 627.484375 522.300781 675.976562 489.757812 732.011719 466.484375 C 788.046875 443.203125 849.25 431.5625 915.628906 431.5625 C 987.179688 431.5625 1052.914062 444.710938 1112.832031 471.003906 C 1172.746094 497.296875 1224.039062 534.800781 1266.707031 583.511719 C 1309.378906 632.21875 1340.632812 689.761719 1360.46875 756.136719 L 1238.910156 756.136719 C 1215.632812 690.625 1175.332031 639.117188 1118.003906 601.621094 C 1060.675781 564.117188 994.515625 545.363281 919.515625 545.363281 C 852.269531 545.363281 792.785156 560.453125 741.0625 590.628906 C 689.335938 620.796875 648.601562 662.605469 618.859375 716.054688 C 589.121094 769.503906 574.25 831.144531 574.25 900.972656 C 574.25 970.796875 589.121094 1032.433594 618.859375 1085.878906 C 648.601562 1139.332031 689.335938 1181.140625 741.0625 1211.316406 C 792.785156 1241.488281 852.269531 1256.570312 919.515625 1256.570312 C 996.238281 1256.570312 1064.34375 1236.742188 1123.824219 1197.089844 C 1183.304688 1157.4375 1224.683594 1103.554688 1247.957031 1035.449219 L 1368.222656 1035.449219 C 1350.121094 1102.691406 1319.300781 1161.316406 1275.765625 1211.316406 C 1232.230469 1261.320312 1179.640625 1300.332031 1118.003906 1328.347656 C 1056.363281 1356.363281 988.90625 1370.375 915.628906 1370.375 Z M 915.628906 1370.375 " fill-opacity="1" fill-rule="nonzero"/></g></g></g></svg>