<svg xmlns="http://www.w3.org/2000/svg" xmlns:xlink="http://www.w3.org/1999/xlink" width="2000" zoomAndPan="magnify" viewBox="0 0 1500 1499.999933" height="2000" preserveAspectRatio="xMidYMid meet" version="1.0"><defs><clipPath id="f171ae6a5f"><path d="M 531 719.496094 L 1443 719.496094 L 1443 1413 L 531 1413 Z M 531 719.496094 " clip-rule="nonzero"/></clipPath><clipPath id="2584de64cc"><rect x="0" width="1500" y="0" height="1475"/></clipPath></defs><g transform="matrix(1, 0, 0, 1, 0, 13)"><g clip-path="url(#2584de64cc)"><path fill="#1b1f25" d="M 989.53125 1412.980469 C 923.167969 1412.980469 861.972656 1401.347656 805.949219 1378.082031 C 749.925781 1354.8125 701.441406 1322.28125 660.5 1280.492188 C 619.554688 1238.699219 587.878906 1189.144531 565.46875 1131.835938 C 543.058594 1074.527344 531.859375 1011.839844 531.859375 943.769531 C 531.859375 875.6875 543.058594 813 565.46875 755.699219 C 587.878906 698.390625 619.554688 648.839844 660.5 607.042969 C 701.441406 565.25 749.925781 532.71875 805.949219 509.453125 C 861.972656 486.179688 923.167969 474.542969 989.53125 474.542969 C 1061.070312 474.542969 1126.796875 487.6875 1186.699219 513.96875 C 1246.605469 540.253906 1297.886719 577.742188 1340.546875 626.433594 C 1383.210938 675.121094 1414.460938 732.640625 1434.292969 798.988281 L 1312.757812 798.988281 C 1289.484375 733.5 1249.191406 682.015625 1191.871094 644.535156 C 1134.554688 607.046875 1068.40625 588.300781 993.421875 588.300781 C 926.1875 588.300781 866.714844 603.382812 814.996094 633.546875 C 763.28125 663.703125 722.554688 705.496094 692.816406 758.921875 C 663.082031 812.351562 648.214844 873.96875 648.214844 943.769531 C 648.214844 1013.5625 663.082031 1075.175781 692.816406 1128.601562 C 722.554688 1182.03125 763.28125 1223.824219 814.996094 1253.988281 C 866.714844 1284.144531 926.1875 1299.222656 993.421875 1299.222656 C 1070.128906 1299.222656 1138.21875 1279.402344 1197.691406 1239.765625 C 1257.164062 1200.128906 1298.53125 1146.265625 1321.804688 1078.1875 L 1442.046875 1078.1875 C 1423.945312 1145.40625 1393.132812 1204.007812 1349.605469 1253.988281 C 1306.078125 1303.972656 1253.496094 1342.964844 1191.871094 1370.972656 C 1130.242188 1398.976562 1062.796875 1412.980469 989.53125 1412.980469 Z M 989.53125 1412.980469 " fill-opacity="1" fill-rule="nonzero"/><path fill="#197cc3" d="M 535.636719 982.5 C 469.265625 982.5 408.066406 970.867188 352.035156 947.601562 C 296.011719 924.332031 247.3125 891.800781 205.933594 850 C 164.558594 808.199219 132.445312 758.644531 109.605469 701.335938 C 86.761719 644.027344 75.339844 581.332031 75.339844 513.246094 C 75.339844 445.164062 86.542969 382.6875 108.953125 325.816406 C 131.371094 268.9375 163.265625 219.382812 204.640625 177.148438 C 246.019531 134.921875 294.503906 102.171875 350.101562 78.90625 C 405.699219 55.636719 466.679688 44 533.054688 44 C 602.015625 44 665.800781 56.496094 724.410156 81.492188 C 783.023438 106.480469 833.664062 141.382812 876.332031 186.195312 C 919.003906 231.011719 949.820312 283.148438 968.785156 342.613281 L 844.664062 342.613281 C 816.214844 284.011719 775.269531 238.550781 721.824219 206.238281 C 668.382812 173.917969 606.753906 157.757812 536.929688 157.757812 C 469.699219 157.757812 410.007812 172.839844 357.855469 203.003906 C 305.707031 233.164062 264.976562 274.964844 235.671875 328.398438 C 206.359375 381.828125 191.707031 443.445312 191.707031 513.246094 C 191.707031 583.054688 206.574219 644.675781 236.3125 698.109375 C 266.050781 751.539062 307 793.335938 359.148438 823.496094 C 411.300781 853.660156 470.988281 868.742188 538.222656 868.742188 C 599.421875 868.742188 653.726562 856.679688 701.136719 832.554688 C 748.542969 808.421875 787.113281 775.027344 816.851562 732.367188 C 846.589844 689.703125 865.34375 639.933594 873.105469 583.050781 L 504.609375 583.050781 L 504.609375 474.472656 L 995.933594 474.472656 C 997.65625 573.578125 979.339844 661.265625 940.980469 737.535156 C 902.625 813.800781 848.75 873.699219 779.359375 917.222656 C 709.96875 960.742188 628.730469 982.5 535.636719 982.5 Z M 535.636719 982.5 " fill-opacity="1" fill-rule="nonzero"/><g clip-path="url(#f171ae6a5f)"><path fill="#1b1f25" d="M 989.53125 1412.863281 C 923.167969 1412.863281 861.972656 1401.230469 805.949219 1377.96875 C 749.925781 1354.695312 701.441406 1322.167969 660.5 1280.378906 C 619.554688 1238.582031 587.878906 1189.03125 565.46875 1131.722656 C 543.058594 1074.414062 531.859375 1011.726562 531.859375 943.652344 C 531.859375 875.574219 543.058594 812.886719 565.46875 755.582031 C 587.878906 698.273438 619.554688 648.726562 660.5 606.925781 C 701.441406 565.132812 749.925781 532.601562 805.949219 509.335938 C 861.972656 486.066406 923.167969 474.429688 989.53125 474.429688 C 1061.070312 474.429688 1126.796875 487.570312 1186.699219 513.855469 C 1246.605469 540.136719 1297.886719 577.628906 1340.546875 626.320312 C 1383.210938 675.007812 1414.460938 732.527344 1434.292969 798.875 L 1312.757812 798.875 C 1289.484375 733.386719 1249.191406 681.902344 1191.871094 644.417969 C 1134.554688 606.933594 1068.40625 588.1875 993.421875 588.1875 C 926.1875 588.1875 866.714844 603.269531 814.996094 633.429688 C 763.28125 663.589844 722.554688 705.382812 692.816406 758.808594 C 663.082031 812.238281 648.214844 873.851562 648.214844 943.652344 C 648.214844 1013.445312 663.082031 1075.058594 692.816406 1128.484375 C 722.554688 1181.914062 763.28125 1223.710938 814.996094 1253.875 C 866.714844 1284.03125 926.1875 1299.105469 993.421875 1299.105469 C 1070.128906 1299.105469 1138.21875 1279.289062 1197.691406 1239.648438 C 1257.164062 1200.011719 1298.53125 1146.152344 1321.804688 1078.074219 L 1442.046875 1078.074219 C 1423.945312 1145.292969 1393.132812 1203.890625 1349.605469 1253.875 C 1306.078125 1303.859375 1253.496094 1342.851562 1191.871094 1370.855469 C 1130.242188 1398.859375 1062.796875 1412.863281 989.53125 1412.863281 Z M 989.53125 1412.863281 " fill-opacity="1" fill-rule="nonzero"/></g></g></g></svg>